<?xml version="1.0" encoding="UTF-8" standalone="no"?>
<!DOCTYPE svg PUBLIC "-//W3C//DTD SVG 1.1//EN"
 "http://www.w3.org/Graphics/SVG/1.1/DTD/svg11.dtd">
<!-- Generated by graphviz version 14.1.4 (20260321.0153)
 -->
<!-- Title: G Pages: 1 -->
<svg width="814pt" height="901pt"
 viewBox="0.00 0.00 814.00 901.00" xmlns="http://www.w3.org/2000/svg" xmlns:xlink="http://www.w3.org/1999/xlink">
<g id="graph0" class="graph" transform="scale(1 1) rotate(0) translate(21.6 878.92)">
<title>G</title>
<polygon fill="white" stroke="none" points="-21.6,21.6 -21.6,-878.92 792.85,-878.92 792.85,21.6 -21.6,21.6"/>
<text xml:space="preserve" text-anchor="middle" x="385.62" y="-840.97" font-family="Helvetica,sans-Serif" font-size="13.00">Figure J&#45;3. Authentication (&quot;Who are you?&quot;) is decided before and separately from Authorization (&quot;Are you allowed here, now?&quot;)</text>
<g id="clust1" class="cluster">
<title>cluster_a</title>
<path fill="#eff6ff" stroke="#1e3a8a" stroke-dasharray="5,2" d="M319.62,-476.3C319.62,-476.3 712.62,-476.3 712.62,-476.3 718.62,-476.3 724.62,-482.3 724.62,-488.3 724.62,-488.3 724.62,-762.82 724.62,-762.82 724.62,-768.82 718.62,-774.82 712.62,-774.82 712.62,-774.82 319.62,-774.82 319.62,-774.82 313.62,-774.82 307.62,-768.82 307.62,-762.82 307.62,-762.82 307.62,-488.3 307.62,-488.3 307.62,-482.3 313.62,-476.3 319.62,-476.3"/>
<text xml:space="preserve" text-anchor="middle" x="516.12" y="-758.47" font-family="Helvetica,sans-Serif" font-size="13.00">AUTHENTICATION &#45; Who is this credential bound to?</text>
</g>
<g id="clust2" class="cluster">
<title>cluster_z</title>
<path fill="#f0fdf4" stroke="#166534" stroke-dasharray="5,2" d="M58.62,-71.78C58.62,-71.78 571.62,-71.78 571.62,-71.78 577.62,-71.78 583.62,-77.78 583.62,-83.78 583.62,-83.78 583.62,-447.3 583.62,-447.3 583.62,-453.3 577.62,-459.3 571.62,-459.3 571.62,-459.3 58.62,-459.3 58.62,-459.3 52.62,-459.3 46.62,-453.3 46.62,-447.3 46.62,-447.3 46.62,-83.78 46.62,-83.78 46.62,-77.78 52.62,-71.78 58.62,-71.78"/>
<text xml:space="preserve" text-anchor="middle" x="315.12" y="-442.95" font-family="Helvetica,sans-Serif" font-size="13.00">AUTHORIZATION &#45; Is this principal allowed at this gate, now?</text>
</g>
<!-- Present -->
<g id="node1" class="node">
<title>Present</title>
<path fill="#f4f6f8" stroke="#334155" stroke-width="1.1" d="M488.05,-835.82C488.05,-835.82 371.2,-835.82 371.2,-835.82 365.2,-835.82 359.2,-829.82 359.2,-823.82 359.2,-823.82 359.2,-811.82 359.2,-811.82 359.2,-805.82 365.2,-799.82 371.2,-799.82 371.2,-799.82 488.05,-799.82 488.05,-799.82 494.05,-799.82 500.05,-805.82 500.05,-811.82 500.05,-811.82 500.05,-823.82 500.05,-823.82 500.05,-829.82 494.05,-835.82 488.05,-835.82"/>
<text xml:space="preserve" text-anchor="middle" x="429.62" y="-813.94" font-family="Helvetica,sans-Serif" font-size="10.00">Student presents credential</text>
</g>
<!-- A1 -->
<g id="node2" class="node">
<title>A1</title>
<path fill="#f4f6f8" stroke="#334155" stroke-width="1.1" d="M474.55,-745.32C474.55,-745.32 384.7,-745.32 384.7,-745.32 378.7,-745.32 372.7,-739.32 372.7,-733.32 372.7,-733.32 372.7,-721.32 372.7,-721.32 372.7,-715.32 378.7,-709.32 384.7,-709.32 384.7,-709.32 474.55,-709.32 474.55,-709.32 480.55,-709.32 486.55,-715.32 486.55,-721.32 486.55,-721.32 486.55,-733.32 486.55,-733.32 486.55,-739.32 480.55,-745.32 474.55,-745.32"/>
<text xml:space="preserve" text-anchor="middle" x="429.62" y="-723.44" font-family="Helvetica,sans-Serif" font-size="10.00">Reader issues nonce</text>
</g>
<!-- Present&#45;&gt;A1 -->
<g id="edge1" class="edge">
<title>Present&#45;&gt;A1</title>
<path fill="none" stroke="#334155" d="M429.62,-799.33C429.62,-786.61 429.62,-769.15 429.62,-754.72"/>
<polygon fill="#334155" stroke="#334155" points="432.25,-754.78 429.63,-747.28 427,-754.78 432.25,-754.78"/>
</g>
<!-- A2 -->
<g id="node3" class="node">
<title>A2</title>
<path fill="#f4f6f8" stroke="#334155" stroke-width="1.1" d="M530.05,-676.32C530.05,-676.32 329.2,-676.32 329.2,-676.32 323.2,-676.32 317.2,-670.32 317.2,-664.32 317.2,-664.32 317.2,-652.32 317.2,-652.32 317.2,-646.32 323.2,-640.32 329.2,-640.32 329.2,-640.32 530.05,-640.32 530.05,-640.32 536.05,-640.32 542.05,-646.32 542.05,-652.32 542.05,-652.32 542.05,-664.32 542.05,-664.32 542.05,-670.32 536.05,-676.32 530.05,-676.32"/>
<text xml:space="preserve" text-anchor="middle" x="429.62" y="-660.07" font-family="Helvetica,sans-Serif" font-size="10.00">Credential proves key possession</text>
<text xml:space="preserve" text-anchor="middle" x="429.62" y="-648.82" font-family="Helvetica,sans-Serif" font-size="10.00">(AES challenge&#45;response / Ed25519 signature)</text>
</g>
<!-- A1&#45;&gt;A2 -->
<g id="edge2" class="edge">
<title>A1&#45;&gt;A2</title>
<path fill="none" stroke="#334155" d="M429.62,-709.06C429.62,-701.93 429.62,-693.5 429.62,-685.62"/>
<polygon fill="#334155" stroke="#334155" points="432.25,-685.76 429.63,-678.26 427,-685.76 432.25,-685.76"/>
</g>
<!-- A3 -->
<g id="node4" class="node">
<title>A3</title>
<path fill="#f4f6f8" stroke="#334155" stroke-width="1.1" d="M508.3,-607.32C508.3,-607.32 350.95,-607.32 350.95,-607.32 344.95,-607.32 338.95,-601.32 338.95,-595.32 338.95,-595.32 338.95,-583.32 338.95,-583.32 338.95,-577.32 344.95,-571.32 350.95,-571.32 350.95,-571.32 508.3,-571.32 508.3,-571.32 514.3,-571.32 520.3,-577.32 520.3,-583.32 520.3,-583.32 520.3,-595.32 520.3,-595.32 520.3,-601.32 514.3,-607.32 508.3,-607.32"/>
<text xml:space="preserve" text-anchor="middle" x="429.62" y="-585.44" font-family="Helvetica,sans-Serif" font-size="10.00">Verified against key material in HSM</text>
</g>
<!-- A2&#45;&gt;A3 -->
<g id="edge3" class="edge">
<title>A2&#45;&gt;A3</title>
<path fill="none" stroke="#334155" d="M429.62,-640.06C429.62,-632.93 429.62,-624.5 429.62,-616.62"/>
<polygon fill="#334155" stroke="#334155" points="432.25,-616.76 429.63,-609.26 427,-616.76 432.25,-616.76"/>
</g>
<!-- AR -->
<g id="node5" class="node">
<title>AR</title>
<path fill="#dcfce7" stroke="#166534" stroke-width="1.1" d="M473.3,-524.93C473.3,-524.93 327.95,-524.93 327.95,-524.93 321.95,-524.93 315.95,-518.93 315.95,-512.93 315.95,-512.93 315.95,-500.93 315.95,-500.93 315.95,-494.93 321.95,-488.93 327.95,-488.93 327.95,-488.93 473.3,-488.93 473.3,-488.93 479.3,-488.93 485.3,-494.93 485.3,-500.93 485.3,-500.93 485.3,-512.93 485.3,-512.93 485.3,-518.93 479.3,-524.93 473.3,-524.93"/>
<text xml:space="preserve" text-anchor="middle" x="400.62" y="-508.68" font-family="Helvetica,sans-Serif" font-size="10.00">Identity reference resolved</text>
<text xml:space="preserve" text-anchor="middle" x="400.62" y="-497.43" font-family="Helvetica,sans-Serif" font-size="10.00">(credential pseudonym &#45;&gt; identity)</text>
</g>
<!-- A3&#45;&gt;AR -->
<g id="edge4" class="edge">
<title>A3&#45;&gt;AR</title>
<path fill="none" stroke="#334155" d="M423.33,-570.88C419.42,-560.03 414.31,-545.88 409.94,-533.74"/>
<polygon fill="#334155" stroke="#334155" points="412.43,-532.93 407.42,-526.76 407.49,-534.71 412.43,-532.93"/>
</g>
<!-- AF -->
<g id="node6" class="node">
<title>AF</title>
<path fill="#fee2e2" stroke="#991b1b" stroke-width="1.1" d="M705.05,-529.57C705.05,-529.57 522.2,-529.57 522.2,-529.57 516.2,-529.57 510.2,-523.57 510.2,-517.57 510.2,-517.57 510.2,-496.3 510.2,-496.3 510.2,-490.3 516.2,-484.3 522.2,-484.3 522.2,-484.3 705.05,-484.3 705.05,-484.3 711.05,-484.3 717.05,-490.3 717.05,-496.3 717.05,-496.3 717.05,-517.57 717.05,-517.57 717.05,-523.57 711.05,-529.57 705.05,-529.57"/>
<text xml:space="preserve" text-anchor="middle" x="613.62" y="-514.31" font-family="Helvetica,sans-Serif" font-size="10.00">FAIL: NOT RECOGNISED</text>
<text xml:space="preserve" text-anchor="middle" x="613.62" y="-503.06" font-family="Helvetica,sans-Serif" font-size="10.00">No identity is known. Guard cannot &quot;help&quot;.</text>
<text xml:space="preserve" text-anchor="middle" x="613.62" y="-491.81" font-family="Helvetica,sans-Serif" font-size="10.00">Direct to Security Office.</text>
</g>
<!-- A3&#45;&gt;AF -->
<g id="edge5" class="edge">
<title>A3&#45;&gt;AF</title>
<path fill="none" stroke="#334155" d="M469.55,-570.88C494.47,-559.99 526.98,-545.79 554.81,-533.63"/>
<polygon fill="#334155" stroke="#334155" points="555.7,-536.1 561.52,-530.7 553.6,-531.29 555.7,-536.1"/>
<text xml:space="preserve" text-anchor="middle" x="540.64" y="-546.77" font-family="Helvetica,sans-Serif" font-size="9.00">invalid</text>
</g>
<!-- Z1 -->
<g id="node7" class="node">
<title>Z1</title>
<path fill="#f4f6f8" stroke="#334155" stroke-width="1.1" d="M476.3,-429.8C476.3,-429.8 324.95,-429.8 324.95,-429.8 318.95,-429.8 312.95,-423.8 312.95,-417.8 312.95,-417.8 312.95,-405.8 312.95,-405.8 312.95,-399.8 318.95,-393.8 324.95,-393.8 324.95,-393.8 476.3,-393.8 476.3,-393.8 482.3,-393.8 488.3,-399.8 488.3,-405.8 488.3,-405.8 488.3,-417.8 488.3,-417.8 488.3,-423.8 482.3,-429.8 476.3,-429.8"/>
<text xml:space="preserve" text-anchor="middle" x="400.62" y="-413.55" font-family="Helvetica,sans-Serif" font-size="10.00">Credential status ACTIVE?</text>
<text xml:space="preserve" text-anchor="middle" x="400.62" y="-402.3" font-family="Helvetica,sans-Serif" font-size="10.00">(not expired / revoked / suspended)</text>
</g>
<!-- AR&#45;&gt;Z1 -->
<g id="edge6" class="edge">
<title>AR&#45;&gt;Z1</title>
<path fill="none" stroke="#334155" d="M400.62,-488.41C400.62,-474.5 400.62,-454.81 400.62,-439.01"/>
<polygon fill="#334155" stroke="#334155" points="403.25,-439.25 400.63,-431.75 398,-439.25 403.25,-439.25"/>
</g>
<!-- Log -->
<g id="node13" class="node">
<title>Log</title>
<path fill="#ede9fe" stroke="#4c1d95" stroke-width="1.1" d="M487.43,-42.52C487.43,-44.87 461.07,-46.78 428.62,-46.78 396.18,-46.78 369.82,-44.87 369.82,-42.52 369.82,-42.52 369.82,-4.25 369.82,-4.25 369.82,-1.91 396.18,0 428.62,0 461.07,0 487.43,-1.91 487.43,-4.25 487.43,-4.25 487.43,-42.52 487.43,-42.52"/>
<path fill="none" stroke="#4c1d95" stroke-width="1.1" d="M487.43,-42.52C487.43,-40.18 461.07,-38.27 428.62,-38.27 396.18,-38.27 369.82,-40.18 369.82,-42.52"/>
<text xml:space="preserve" text-anchor="middle" x="428.62" y="-25.14" font-family="Helvetica,sans-Serif" font-size="10.00">Every decision logged</text>
<text xml:space="preserve" text-anchor="middle" x="428.62" y="-13.89" font-family="Helvetica,sans-Serif" font-size="10.00">(pseudonymous)</text>
</g>
<!-- AF&#45;&gt;Log -->
<g id="edge15" class="edge">
<title>AF&#45;&gt;Log</title>
<path fill="none" stroke="#334155" d="M613.62,-484.1C613.62,-465.23 613.62,-437.21 613.62,-412.8 613.62,-412.8 613.62,-412.8 613.62,-107.04 613.62,-53.97 549.39,-34.75 496.62,-27.91"/>
<polygon fill="#334155" stroke="#334155" points="497.18,-25.33 489.43,-27.05 496.57,-30.54 497.18,-25.33"/>
</g>
<!-- Z2 -->
<g id="node8" class="node">
<title>Z2</title>
<path fill="#f4f6f8" stroke="#334155" stroke-width="1.1" d="M441.8,-360.8C441.8,-360.8 323.45,-360.8 323.45,-360.8 317.45,-360.8 311.45,-354.8 311.45,-348.8 311.45,-348.8 311.45,-336.8 311.45,-336.8 311.45,-330.8 317.45,-324.8 323.45,-324.8 323.45,-324.8 441.8,-324.8 441.8,-324.8 447.8,-324.8 453.8,-330.8 453.8,-336.8 453.8,-336.8 453.8,-348.8 453.8,-348.8 453.8,-354.8 447.8,-360.8 441.8,-360.8"/>
<text xml:space="preserve" text-anchor="middle" x="382.62" y="-338.92" font-family="Helvetica,sans-Serif" font-size="10.00">Role permitted at this gate?</text>
</g>
<!-- Z1&#45;&gt;Z2 -->
<g id="edge7" class="edge">
<title>Z1&#45;&gt;Z2</title>
<path fill="none" stroke="#334155" d="M395.99,-393.54C394.05,-386.33 391.76,-377.79 389.62,-369.85"/>
<polygon fill="#334155" stroke="#334155" points="392.18,-369.25 387.7,-362.69 387.11,-370.61 392.18,-369.25"/>
</g>
<!-- ZF -->
<g id="node12" class="node">
<title>ZF</title>
<path fill="#fef3c7" stroke="#92400e" stroke-width="1.1" d="M563.55,-136.3C563.55,-136.3 293.7,-136.3 293.7,-136.3 287.7,-136.3 281.7,-130.3 281.7,-124.3 281.7,-124.3 281.7,-91.78 281.7,-91.78 281.7,-85.78 287.7,-79.78 293.7,-79.78 293.7,-79.78 563.55,-79.78 563.55,-79.78 569.55,-79.78 575.55,-85.78 575.55,-91.78 575.55,-91.78 575.55,-124.3 575.55,-124.3 575.55,-130.3 569.55,-136.3 563.55,-136.3"/>
<text xml:space="preserve" text-anchor="middle" x="428.62" y="-121.04" font-family="Helvetica,sans-Serif" font-size="10.00">FAIL: identity IS known.</text>
<text xml:space="preserve" text-anchor="middle" x="428.62" y="-109.79" font-family="Helvetica,sans-Serif" font-size="10.00">Message names the class:</text>
<text xml:space="preserve" text-anchor="middle" x="428.62" y="-98.54" font-family="Helvetica,sans-Serif" font-size="10.00">EXPIRED &#45;&gt; ID cell | REVOKED &#45;&gt; Security Office</text>
<text xml:space="preserve" text-anchor="middle" x="428.62" y="-87.29" font-family="Helvetica,sans-Serif" font-size="10.00">NOT PERMITTED &#45;&gt; other gate | SUSPICIOUS &#45;&gt; supervisor</text>
</g>
<!-- Z1&#45;&gt;ZF -->
<g id="edge11" class="edge">
<title>Z1&#45;&gt;ZF</title>
<path fill="none" stroke="#334155" d="M441.98,-393.51C461.09,-382.51 479.62,-366.1 479.62,-343.8 479.62,-343.8 479.62,-343.8 479.62,-195.05 479.62,-176.4 470.65,-158.26 460.22,-143.48"/>
<polygon fill="#334155" stroke="#334155" points="462.51,-142.16 455.93,-137.72 458.31,-145.3 462.51,-142.16"/>
<text xml:space="preserve" text-anchor="middle" x="484.88" y="-270.12" font-family="Helvetica,sans-Serif" font-size="9.00">no</text>
</g>
<!-- Z3 -->
<g id="node9" class="node">
<title>Z3</title>
<path fill="#f4f6f8" stroke="#334155" stroke-width="1.1" d="M390.55,-291.8C390.55,-291.8 258.7,-291.8 258.7,-291.8 252.7,-291.8 246.7,-285.8 246.7,-279.8 246.7,-279.8 246.7,-267.8 246.7,-267.8 246.7,-261.8 252.7,-255.8 258.7,-255.8 258.7,-255.8 390.55,-255.8 390.55,-255.8 396.55,-255.8 402.55,-261.8 402.55,-267.8 402.55,-267.8 402.55,-279.8 402.55,-279.8 402.55,-285.8 396.55,-291.8 390.55,-291.8"/>
<text xml:space="preserve" text-anchor="middle" x="324.62" y="-269.92" font-family="Helvetica,sans-Serif" font-size="10.00">Within permitted time window?</text>
</g>
<!-- Z2&#45;&gt;Z3 -->
<g id="edge8" class="edge">
<title>Z2&#45;&gt;Z3</title>
<path fill="none" stroke="#334155" d="M367.69,-324.54C360.91,-316.71 352.78,-307.32 345.41,-298.81"/>
<polygon fill="#334155" stroke="#334155" points="347.6,-297.32 340.7,-293.37 343.63,-300.76 347.6,-297.32"/>
</g>
<!-- Z2&#45;&gt;ZF -->
<g id="edge12" class="edge">
<title>Z2&#45;&gt;ZF</title>
<path fill="none" stroke="#334155" d="M396.8,-324.39C403.42,-315.25 410.7,-303.53 414.62,-291.8 430.94,-243.05 432.24,-183.04 430.98,-145.41"/>
<polygon fill="#334155" stroke="#334155" points="433.61,-145.7 430.69,-138.31 428.37,-145.91 433.61,-145.7"/>
<text xml:space="preserve" text-anchor="middle" x="432.85" y="-231.25" font-family="Helvetica,sans-Serif" font-size="9.00">no</text>
</g>
<!-- Z4 -->
<g id="node10" class="node">
<title>Z4</title>
<path fill="#f4f6f8" stroke="#334155" stroke-width="1.1" d="M329.68,-214.05C329.68,-214.05 219.57,-214.05 219.57,-214.05 213.57,-214.05 207.57,-208.05 207.57,-202.05 207.57,-202.05 207.57,-190.05 207.57,-190.05 207.57,-184.05 213.57,-178.05 219.57,-178.05 219.57,-178.05 329.68,-178.05 329.68,-178.05 335.68,-178.05 341.68,-184.05 341.68,-190.05 341.68,-190.05 341.68,-202.05 341.68,-202.05 341.68,-208.05 335.68,-214.05 329.68,-214.05"/>
<text xml:space="preserve" text-anchor="middle" x="274.62" y="-192.17" font-family="Helvetica,sans-Serif" font-size="10.00">No active alert (SEC&#45;13)?</text>
</g>
<!-- Z3&#45;&gt;Z4 -->
<g id="edge9" class="edge">
<title>Z3&#45;&gt;Z4</title>
<path fill="none" stroke="#334155" d="M313.28,-255.61C306.68,-245.61 298.24,-232.83 290.94,-221.76"/>
<polygon fill="#334155" stroke="#334155" points="293.26,-220.51 286.93,-215.69 288.87,-223.4 293.26,-220.51"/>
</g>
<!-- Z3&#45;&gt;ZF -->
<g id="edge13" class="edge">
<title>Z3&#45;&gt;ZF</title>
<path fill="none" stroke="#334155" d="M335.75,-255.27C352.51,-228.88 384.57,-178.41 406.28,-144.23"/>
<polygon fill="#334155" stroke="#334155" points="408.4,-145.79 410.2,-138.05 403.96,-142.97 408.4,-145.79"/>
<text xml:space="preserve" text-anchor="middle" x="388.79" y="-192.37" font-family="Helvetica,sans-Serif" font-size="9.00">no</text>
</g>
<!-- ZR -->
<g id="node11" class="node">
<title>ZR</title>
<path fill="#dcfce7" stroke="#166534" stroke-width="1.1" d="M244.43,-126.04C244.43,-126.04 66.82,-126.04 66.82,-126.04 60.82,-126.04 54.83,-120.04 54.83,-114.04 54.83,-114.04 54.83,-102.04 54.83,-102.04 54.83,-96.04 60.83,-90.04 66.83,-90.04 66.83,-90.04 244.43,-90.04 244.43,-90.04 250.43,-90.04 256.43,-96.04 256.43,-102.04 256.43,-102.04 256.43,-114.04 256.43,-114.04 256.43,-120.04 250.43,-126.04 244.43,-126.04"/>
<text xml:space="preserve" text-anchor="middle" x="155.62" y="-109.79" font-family="Helvetica,sans-Serif" font-size="10.00">ALLOW</text>
<text xml:space="preserve" text-anchor="middle" x="155.62" y="-98.54" font-family="Helvetica,sans-Serif" font-size="10.00">Guard confirms face against server photo</text>
</g>
<!-- Z4&#45;&gt;ZR -->
<g id="edge10" class="edge">
<title>Z4&#45;&gt;ZR</title>
<path fill="none" stroke="#334155" d="M250.54,-177.64C232.16,-164.35 206.67,-145.93 186.74,-131.53"/>
<polygon fill="#334155" stroke="#334155" points="188.51,-129.57 180.9,-127.3 185.44,-133.82 188.51,-129.57"/>
</g>
<!-- Z4&#45;&gt;ZF -->
<g id="edge14" class="edge">
<title>Z4&#45;&gt;ZF</title>
<path fill="none" stroke="#334155" d="M305.79,-177.64C324.58,-167.15 349.09,-153.46 371.28,-141.07"/>
<polygon fill="#334155" stroke="#334155" points="372.42,-143.43 377.69,-137.48 369.86,-138.85 372.42,-143.43"/>
<text xml:space="preserve" text-anchor="middle" x="352.26" y="-153.5" font-family="Helvetica,sans-Serif" font-size="9.00">no</text>
</g>
<!-- ZR&#45;&gt;Log -->
<g id="edge16" class="edge">
<title>ZR&#45;&gt;Log</title>
<path fill="none" stroke="#334155" d="M211.83,-89.53C230.24,-83.83 250.79,-77.5 269.62,-71.78 299.47,-62.71 332.52,-52.84 360.72,-44.46"/>
<polygon fill="#334155" stroke="#334155" points="361.42,-46.99 367.86,-42.34 359.92,-41.96 361.42,-46.99"/>
</g>
<!-- ZF&#45;&gt;Log -->
<g id="edge17" class="edge">
<title>ZF&#45;&gt;Log</title>
<path fill="none" stroke="#334155" d="M428.62,-79.52C428.62,-71.96 428.62,-63.7 428.62,-55.93"/>
<polygon fill="#334155" stroke="#334155" points="431.25,-56.12 428.63,-48.62 426,-56.12 431.25,-56.12"/>
</g>
</g>
</svg>
