<?xml version="1.0" encoding="UTF-8" standalone="no"?>
<!DOCTYPE svg PUBLIC "-//W3C//DTD SVG 1.1//EN"
 "http://www.w3.org/Graphics/SVG/1.1/DTD/svg11.dtd">
<!-- Generated by graphviz version 14.1.4 (20260321.0153)
 -->
<!-- Title: G Pages: 1 -->
<svg width="1069pt" height="557pt"
 viewBox="0.00 0.00 1069.00 557.00" xmlns="http://www.w3.org/2000/svg" xmlns:xlink="http://www.w3.org/1999/xlink">
<g id="graph0" class="graph" transform="scale(1 1) rotate(0) translate(21.6 535.31)">
<title>G</title>
<polygon fill="white" stroke="none" points="-21.6,21.6 -21.6,-535.31 1047.1,-535.31 1047.1,21.6 -21.6,21.6"/>
<text xml:space="preserve" text-anchor="middle" x="512.75" y="-497.36" font-family="Helvetica,sans-Serif" font-size="13.00">Figure J&#45;1. Overall system: user studies drove the requirements; every decision is authenticated, authorized and logged</text>
<g id="clust1" class="cluster">
<title>cluster_u</title>
<polygon fill="white" stroke="#64748b" stroke-dasharray="5,2" points="176.35,-161 176.35,-428 288.95,-428 288.95,-161 176.35,-161"/>
<text xml:space="preserve" text-anchor="middle" x="232.65" y="-411.65" font-family="Helvetica,sans-Serif" font-size="13.00">Users</text>
</g>
<g id="clust2" class="cluster">
<title>cluster_g</title>
<polygon fill="white" stroke="#64748b" stroke-dasharray="5,2" points="391.2,-285 391.2,-429 780.15,-429 780.15,-285 391.2,-285"/>
<text xml:space="preserve" text-anchor="middle" x="585.67" y="-412.65" font-family="Helvetica,sans-Serif" font-size="13.00">Gate (trust boundary B1/B2)</text>
</g>
<g id="clust3" class="cluster">
<title>cluster_s</title>
<polygon fill="white" stroke="#64748b" stroke-dasharray="5,2" points="8,-8 8,-153 1017.5,-153 1017.5,-8 8,-8"/>
<text xml:space="preserve" text-anchor="middle" x="512.75" y="-136.65" font-family="Helvetica,sans-Serif" font-size="13.00">Services (B3/B4)</text>
</g>
<!-- Student -->
<g id="node1" class="node">
<title>Student</title>
<polygon fill="#ffffff" stroke="#111827" stroke-width="1.6" points="260.32,-337 204.97,-337 204.97,-301 260.32,-301 260.32,-337"/>
<text xml:space="preserve" text-anchor="middle" x="232.65" y="-315.12" font-family="Helvetica,sans-Serif" font-size="10.00">Student</text>
</g>
<!-- Cred -->
<g id="node5" class="node">
<title>Cred</title>
<path fill="#f4f6f8" stroke="#334155" stroke-width="1.1" d="M522.8,-399.63C522.8,-399.63 411.2,-399.63 411.2,-399.63 405.2,-399.63 399.2,-393.63 399.2,-387.63 399.2,-387.63 399.2,-366.37 399.2,-366.37 399.2,-360.37 405.2,-354.37 411.2,-354.37 411.2,-354.37 522.8,-354.37 522.8,-354.37 528.8,-354.37 534.8,-360.37 534.8,-366.37 534.8,-366.37 534.8,-387.63 534.8,-387.63 534.8,-393.63 528.8,-399.63 522.8,-399.63"/>
<text xml:space="preserve" text-anchor="middle" x="467" y="-384.38" font-family="Helvetica,sans-Serif" font-size="10.00">Credential</text>
<text xml:space="preserve" text-anchor="middle" x="467" y="-373.12" font-family="Helvetica,sans-Serif" font-size="10.00">smart card / phone NFC /</text>
<text xml:space="preserve" text-anchor="middle" x="467" y="-361.88" font-family="Helvetica,sans-Serif" font-size="10.00">dynamic QR / visitor pass</text>
</g>
<!-- Student&#45;&gt;Cred -->
<g id="edge1" class="edge">
<title>Student&#45;&gt;Cred</title>
<path fill="none" stroke="#334155" d="M260.76,-325.77C292.36,-333.66 345.94,-347.03 390.43,-358.13"/>
<polygon fill="#334155" stroke="#334155" points="389.52,-360.62 397.44,-359.89 390.8,-355.52 389.52,-360.62"/>
<text xml:space="preserve" text-anchor="middle" x="340.07" y="-356.1" font-family="Helvetica,sans-Serif" font-size="9.00">tap / show</text>
</g>
<!-- Store -->
<g id="node12" class="node">
<title>Store</title>
<path fill="#ede9fe" stroke="#4c1d95" stroke-width="1.1" d="M522.42,-119.14C522.42,-121.48 497.58,-123.39 467,-123.39 436.42,-123.39 411.57,-121.48 411.57,-119.14 411.57,-119.14 411.57,-80.86 411.57,-80.86 411.57,-78.52 436.42,-76.61 467,-76.61 497.58,-76.61 522.42,-78.52 522.42,-80.86 522.42,-80.86 522.42,-119.14 522.42,-119.14"/>
<path fill="none" stroke="#4c1d95" stroke-width="1.1" d="M522.42,-119.14C522.42,-116.79 497.58,-114.88 467,-114.88 436.42,-114.88 411.57,-116.79 411.57,-119.14"/>
<text xml:space="preserve" text-anchor="middle" x="467" y="-101.75" font-family="Helvetica,sans-Serif" font-size="10.00">Credential &amp; Identity</text>
<text xml:space="preserve" text-anchor="middle" x="467" y="-90.5" font-family="Helvetica,sans-Serif" font-size="10.00">Store</text>
</g>
<!-- Student&#45;&gt;Store -->
<g id="edge20" class="edge">
<title>Student&#45;&gt;Store</title>
<path fill="none" stroke="#334155" stroke-dasharray="5,2" d="M261.07,-307.17C270.49,-302.34 280.73,-296.19 288.95,-289 342.41,-242.26 347.64,-221.46 383.2,-160 387.58,-152.42 385.31,-148.47 391.2,-142 396.17,-136.54 402.03,-131.62 408.23,-127.23"/>
<polygon fill="#334155" stroke="#334155" points="409.58,-129.49 414.39,-123.16 406.68,-125.11 409.58,-129.49"/>
<text xml:space="preserve" text-anchor="middle" x="340.07" y="-291.8" font-family="Helvetica,sans-Serif" font-size="9.00">self&#45;service:</text>
<text xml:space="preserve" text-anchor="middle" x="340.07" y="-282.05" font-family="Helvetica,sans-Serif" font-size="9.00">report lost, view own</text>
</g>
<!-- Visitor -->
<g id="node2" class="node">
<title>Visitor</title>
<polygon fill="#ffffff" stroke="#111827" stroke-width="1.6" points="259.65,-398 205.65,-398 205.65,-362 259.65,-362 259.65,-398"/>
<text xml:space="preserve" text-anchor="middle" x="232.65" y="-376.12" font-family="Helvetica,sans-Serif" font-size="10.00">Visitor</text>
</g>
<!-- Visitor&#45;&gt;Cred -->
<g id="edge2" class="edge">
<title>Visitor&#45;&gt;Cred</title>
<path fill="none" stroke="#334155" d="M260.3,-379.66C291.82,-379.25 345.63,-378.55 390.31,-377.98"/>
<polygon fill="#334155" stroke="#334155" points="390.14,-380.6 397.6,-377.88 390.07,-375.36 390.14,-380.6"/>
<text xml:space="preserve" text-anchor="middle" x="340.07" y="-380.31" font-family="Helvetica,sans-Serif" font-size="9.00">show pass</text>
</g>
<!-- Host -->
<g id="node3" class="node">
<title>Host</title>
<polygon fill="#ffffff" stroke="#111827" stroke-width="1.6" points="272.32,-276 192.97,-276 192.97,-240 272.32,-240 272.32,-276"/>
<text xml:space="preserve" text-anchor="middle" x="232.65" y="-259.75" font-family="Helvetica,sans-Serif" font-size="10.00">Host</text>
<text xml:space="preserve" text-anchor="middle" x="232.65" y="-248.5" font-family="Helvetica,sans-Serif" font-size="10.00">(faculty/staff)</text>
</g>
<!-- VStore -->
<g id="node16" class="node">
<title>VStore</title>
<path fill="#ede9fe" stroke="#4c1d95" stroke-width="1.1" d="M99.85,-58.73C99.85,-60.53 81.06,-62 57.92,-62 34.79,-62 16,-60.53 16,-58.73 16,-58.73 16,-29.27 16,-29.27 16,-27.47 34.79,-26 57.92,-26 81.06,-26 99.85,-27.47 99.85,-29.27 99.85,-29.27 99.85,-58.73 99.85,-58.73"/>
<path fill="none" stroke="#4c1d95" stroke-width="1.1" d="M99.85,-58.73C99.85,-56.92 81.06,-55.45 57.92,-55.45 34.79,-55.45 16,-56.92 16,-58.73"/>
<text xml:space="preserve" text-anchor="middle" x="57.92" y="-40.12" font-family="Helvetica,sans-Serif" font-size="10.00">Visitor passes</text>
</g>
<!-- Host&#45;&gt;VStore -->
<g id="edge18" class="edge">
<title>Host&#45;&gt;VStore</title>
<path fill="none" stroke="#334155" d="M192.25,-239.52C186.54,-235.85 181.02,-231.67 176.35,-227 137.45,-188.09 138.77,-169.02 115.85,-119 107.18,-100.08 112.2,-91.74 99.85,-75 97.99,-72.49 95.88,-70.08 93.61,-67.8"/>
<polygon fill="#334155" stroke="#334155" points="95.75,-66.19 88.44,-63.08 92.21,-70.07 95.75,-66.19"/>
<text xml:space="preserve" text-anchor="middle" x="142.1" y="-219.22" font-family="Helvetica,sans-Serif" font-size="9.00">request pass</text>
</g>
<!-- Admin -->
<g id="node4" class="node">
<title>Admin</title>
<polygon fill="#ffffff" stroke="#111827" stroke-width="1.6" points="280.95,-214.63 184.35,-214.63 184.35,-169.37 280.95,-169.37 280.95,-214.63"/>
<text xml:space="preserve" text-anchor="middle" x="232.65" y="-199.38" font-family="Helvetica,sans-Serif" font-size="10.00">Administrator</text>
<text xml:space="preserve" text-anchor="middle" x="232.65" y="-188.12" font-family="Helvetica,sans-Serif" font-size="10.00">(Issuer/Approver/</text>
<text xml:space="preserve" text-anchor="middle" x="232.65" y="-176.88" font-family="Helvetica,sans-Serif" font-size="10.00">Auditor/Policy)</text>
</g>
<!-- Admin&#45;&gt;Store -->
<g id="edge15" class="edge">
<title>Admin&#45;&gt;Store</title>
<path fill="none" stroke="#334155" d="M279.36,-168.63C282.89,-165.7 286.16,-162.49 288.95,-159 296.1,-150.05 288.4,-142.12 296.95,-134.5 325.49,-109.05 367.62,-100.4 402.67,-98.13"/>
<polygon fill="#334155" stroke="#334155" points="402.55,-100.76 409.91,-97.76 402.29,-95.52 402.55,-100.76"/>
<text xml:space="preserve" text-anchor="middle" x="340.07" y="-145.45" font-family="Helvetica,sans-Serif" font-size="9.00">issue / revoke</text>
<text xml:space="preserve" text-anchor="middle" x="340.07" y="-135.7" font-family="Helvetica,sans-Serif" font-size="9.00">(MFA, logged)</text>
</g>
<!-- Pol -->
<g id="node13" class="node">
<title>Pol</title>
<path fill="#ede9fe" stroke="#4c1d95" stroke-width="1.1" d="M747.77,-51.73C747.77,-53.53 731,-55 710.35,-55 689.7,-55 672.92,-53.53 672.92,-51.73 672.92,-51.73 672.92,-22.27 672.92,-22.27 672.92,-20.47 689.7,-19 710.35,-19 731,-19 747.77,-20.47 747.77,-22.27 747.77,-22.27 747.77,-51.73 747.77,-51.73"/>
<path fill="none" stroke="#4c1d95" stroke-width="1.1" d="M747.77,-51.73C747.77,-49.92 731,-48.45 710.35,-48.45 689.7,-48.45 672.92,-49.92 672.92,-51.73"/>
<text xml:space="preserve" text-anchor="middle" x="710.35" y="-33.12" font-family="Helvetica,sans-Serif" font-size="10.00">Policy Store</text>
</g>
<!-- Admin&#45;&gt;Pol -->
<g id="edge16" class="edge">
<title>Admin&#45;&gt;Pol</title>
<path fill="none" stroke="#334155" d="M281.67,-188.16C342.26,-182.17 448.9,-167.82 534.8,-136 589.61,-115.69 597.58,-98.61 648.55,-70 655.32,-66.2 662.54,-62.22 669.56,-58.38"/>
<polygon fill="#334155" stroke="#334155" points="670.41,-60.91 675.74,-55.02 667.9,-56.3 670.41,-60.91"/>
<text xml:space="preserve" text-anchor="middle" x="467" y="-173.56" font-family="Helvetica,sans-Serif" font-size="9.00">edit policy</text>
</g>
<!-- Log -->
<g id="node14" class="node">
<title>Log</title>
<path fill="#ede9fe" stroke="#4c1d95" stroke-width="1.1" d="M1009.5,-119.14C1009.5,-121.48 977.6,-123.39 938.32,-123.39 899.05,-123.39 867.15,-121.48 867.15,-119.14 867.15,-119.14 867.15,-80.86 867.15,-80.86 867.15,-78.52 899.05,-76.61 938.32,-76.61 977.6,-76.61 1009.5,-78.52 1009.5,-80.86 1009.5,-80.86 1009.5,-119.14 1009.5,-119.14"/>
<path fill="none" stroke="#4c1d95" stroke-width="1.1" d="M1009.5,-119.14C1009.5,-116.79 977.6,-114.88 938.32,-114.88 899.05,-114.88 867.15,-116.79 867.15,-119.14"/>
<text xml:space="preserve" text-anchor="middle" x="938.32" y="-101.75" font-family="Helvetica,sans-Serif" font-size="10.00">Audit Log</text>
<text xml:space="preserve" text-anchor="middle" x="938.32" y="-90.5" font-family="Helvetica,sans-Serif" font-size="10.00">(append&#45;only, hash&#45;chained)</text>
</g>
<!-- Admin&#45;&gt;Log -->
<g id="edge17" class="edge">
<title>Admin&#45;&gt;Log</title>
<path fill="none" stroke="#334155" d="M281.65,-197.87C286.8,-198.33 291.98,-198.73 296.95,-199 335.23,-201.11 344.89,-200.39 383.2,-199 450.71,-196.55 467.94,-197.68 534.8,-188 648.19,-171.58 777.25,-141.26 858,-120.86"/>
<polygon fill="#334155" stroke="#334155" points="858.54,-123.43 865.16,-119.04 857.25,-118.34 858.54,-123.43"/>
<text xml:space="preserve" text-anchor="middle" x="591.67" y="-196.43" font-family="Helvetica,sans-Serif" font-size="9.00">review</text>
<text xml:space="preserve" text-anchor="middle" x="591.67" y="-186.68" font-family="Helvetica,sans-Serif" font-size="9.00">(pseudonymous)</text>
</g>
<!-- Reader -->
<g id="node6" class="node">
<title>Reader</title>
<path fill="#f4f6f8" stroke="#334155" stroke-width="1.1" d="M760.15,-398C760.15,-398 660.55,-398 660.55,-398 654.55,-398 648.55,-392 648.55,-386 648.55,-386 648.55,-374 648.55,-374 648.55,-368 654.55,-362 660.55,-362 660.55,-362 760.15,-362 760.15,-362 766.15,-362 772.15,-368 772.15,-374 772.15,-374 772.15,-386 772.15,-386 772.15,-392 766.15,-398 760.15,-398"/>
<text xml:space="preserve" text-anchor="middle" x="710.35" y="-381.75" font-family="Helvetica,sans-Serif" font-size="10.00">Reader + user indicator</text>
<text xml:space="preserve" text-anchor="middle" x="710.35" y="-370.5" font-family="Helvetica,sans-Serif" font-size="10.00">(no master keys)</text>
</g>
<!-- Cred&#45;&gt;Reader -->
<g id="edge3" class="edge">
<title>Cred&#45;&gt;Reader</title>
<path fill="none" stroke="#334155" d="M535.23,-377.84C567.75,-378.24 606.76,-378.72 639.61,-379.13"/>
<polygon fill="#334155" stroke="#334155" points="639.21,-381.75 646.74,-379.22 639.28,-376.5 639.21,-381.75"/>
<text xml:space="preserve" text-anchor="middle" x="591.67" y="-389.98" font-family="Helvetica,sans-Serif" font-size="9.00">challenge&#45;response</text>
<text xml:space="preserve" text-anchor="middle" x="591.67" y="-380.23" font-family="Helvetica,sans-Serif" font-size="9.00">or signed token</text>
</g>
<!-- Auth -->
<g id="node8" class="node">
<title>Auth</title>
<path fill="#dbeafe" stroke="#1e3a8a" stroke-width="1.1" d="M87.85,-123C87.85,-123 28,-123 28,-123 22,-123 16,-117 16,-111 16,-111 16,-99 16,-99 16,-93 22,-87 28,-87 28,-87 87.85,-87 87.85,-87 93.85,-87 99.85,-93 99.85,-99 99.85,-99 99.85,-111 99.85,-111 99.85,-117 93.85,-123 87.85,-123"/>
<text xml:space="preserve" text-anchor="middle" x="57.92" y="-106.75" font-family="Helvetica,sans-Serif" font-size="10.00">Authentication</text>
<text xml:space="preserve" text-anchor="middle" x="57.92" y="-95.5" font-family="Helvetica,sans-Serif" font-size="10.00">Service</text>
</g>
<!-- Reader&#45;&gt;Auth -->
<g id="edge4" class="edge">
<title>Reader&#45;&gt;Auth</title>
<path fill="none" stroke="#334155" d="M699.77,-398.23C687.44,-419.48 663.85,-453.55 632.55,-468 622.04,-472.85 150.41,-498.06 115.85,-468 65.32,-424.05 59.38,-208.01 58.88,-131.73"/>
<polygon fill="#334155" stroke="#334155" points="61.51,-132.14 58.85,-124.65 56.26,-132.17 61.51,-132.14"/>
<text xml:space="preserve" text-anchor="middle" x="340.07" y="-483.66" font-family="Helvetica,sans-Serif" font-size="9.00">mTLS 1.3</text>
</g>
<!-- Reader&#45;&gt;Log -->
<g id="edge14" class="edge">
<title>Reader&#45;&gt;Log</title>
<path fill="none" stroke="#334155" stroke-dasharray="5,2" d="M732.31,-361.87C761.07,-336.38 813.48,-287.72 851.15,-240 878.63,-205.19 904.5,-161.06 920.59,-131.74"/>
<polygon fill="#334155" stroke="#334155" points="922.86,-133.06 924.14,-125.22 918.25,-130.55 922.86,-133.06"/>
<text xml:space="preserve" text-anchor="middle" x="819.65" y="-319.16" font-family="Helvetica,sans-Serif" font-size="9.00">buffered events</text>
<text xml:space="preserve" text-anchor="middle" x="819.65" y="-309.41" font-family="Helvetica,sans-Serif" font-size="9.00">(offline)</text>
</g>
<!-- Guard -->
<g id="node7" class="node">
<title>Guard</title>
<path fill="#f4f6f8" stroke="#334155" stroke-width="1.1" d="M519.8,-329C519.8,-329 414.2,-329 414.2,-329 408.2,-329 402.2,-323 402.2,-317 402.2,-317 402.2,-305 402.2,-305 402.2,-299 408.2,-293 414.2,-293 414.2,-293 519.8,-293 519.8,-293 525.8,-293 531.8,-299 531.8,-305 531.8,-305 531.8,-317 531.8,-317 531.8,-323 525.8,-329 519.8,-329"/>
<text xml:space="preserve" text-anchor="middle" x="467" y="-312.75" font-family="Helvetica,sans-Serif" font-size="10.00">Guard tablet</text>
<text xml:space="preserve" text-anchor="middle" x="467" y="-301.5" font-family="Helvetica,sans-Serif" font-size="10.00">photo + name + decision</text>
</g>
<!-- Auth&#45;&gt;Reader -->
<g id="edge21" class="edge">
<title>Auth&#45;&gt;Reader</title>
<path fill="none" stroke="#334155" stroke-dasharray="1,5" d="M61.08,-132.01C65.7,-179.44 79.31,-279.91 115.85,-356 134.54,-394.92 137.46,-413.25 176.35,-432 235.64,-460.58 393.64,-452.58 632.55,-405 640.94,-403.33 649.69,-401.04 658.16,-398.51"/>
<polygon fill="#334155" stroke="#334155" points="63.71,-131.98 60.41,-124.76 58.48,-132.47 63.71,-131.98"/>
<text xml:space="preserve" text-anchor="middle" x="340.07" y="-459.42" font-family="Helvetica,sans-Serif" font-size="9.00">signed revocation list</text>
<text xml:space="preserve" text-anchor="middle" x="340.07" y="-449.67" font-family="Helvetica,sans-Serif" font-size="9.00">+ public keys (sync)</text>
</g>
<!-- Val -->
<g id="node9" class="node">
<title>Val</title>
<path fill="#dbeafe" stroke="#1e3a8a" stroke-width="1.1" d="M264.07,-52C264.07,-52 201.22,-52 201.22,-52 195.22,-52 189.22,-46 189.22,-40 189.22,-40 189.22,-28 189.22,-28 189.22,-22 195.22,-16 201.22,-16 201.22,-16 264.07,-16 264.07,-16 270.07,-16 276.07,-22 276.07,-28 276.07,-28 276.07,-40 276.07,-40 276.07,-46 270.07,-52 264.07,-52"/>
<text xml:space="preserve" text-anchor="middle" x="232.65" y="-35.75" font-family="Helvetica,sans-Serif" font-size="10.00">Validity check</text>
<text xml:space="preserve" text-anchor="middle" x="232.65" y="-24.5" font-family="Helvetica,sans-Serif" font-size="10.00">(status, expiry)</text>
</g>
<!-- Auth&#45;&gt;Val -->
<g id="edge6" class="edge">
<title>Auth&#45;&gt;Val</title>
<path fill="none" stroke="#334155" d="M108.35,-84.68C130.98,-75.38 157.77,-64.37 180.6,-54.99"/>
<polygon fill="#334155" stroke="#334155" points="107.64,-82.14 101.7,-87.42 109.63,-86.99 107.64,-82.14"/>
<polygon fill="#334155" stroke="#334155" points="181.47,-57.46 187.41,-52.18 179.48,-52.61 181.47,-57.46"/>
</g>
<!-- HSM -->
<g id="node15" class="node">
<title>HSM</title>
<path fill="#ede9fe" stroke="#4c1d95" stroke-width="1.1" d="M270.07,-119.14C270.07,-121.48 253.3,-123.39 232.65,-123.39 212,-123.39 195.22,-121.48 195.22,-119.14 195.22,-119.14 195.22,-80.86 195.22,-80.86 195.22,-78.52 212,-76.61 232.65,-76.61 253.3,-76.61 270.07,-78.52 270.07,-80.86 270.07,-80.86 270.07,-119.14 270.07,-119.14"/>
<path fill="none" stroke="#4c1d95" stroke-width="1.1" d="M270.07,-119.14C270.07,-116.79 253.3,-114.88 232.65,-114.88 212,-114.88 195.22,-116.79 195.22,-119.14"/>
<text xml:space="preserve" text-anchor="middle" x="232.65" y="-101.75" font-family="Helvetica,sans-Serif" font-size="10.00">HSM / KMS</text>
<text xml:space="preserve" text-anchor="middle" x="232.65" y="-90.5" font-family="Helvetica,sans-Serif" font-size="10.00">(keys)</text>
</g>
<!-- Auth&#45;&gt;HSM -->
<g id="edge5" class="edge">
<title>Auth&#45;&gt;HSM</title>
<path fill="none" stroke="#334155" d="M108.96,-103.55C133.25,-102.85 162.23,-102.01 185.93,-101.32"/>
<polygon fill="#334155" stroke="#334155" points="109.23,-100.92 101.81,-103.76 109.38,-106.17 109.23,-100.92"/>
<polygon fill="#334155" stroke="#334155" points="185.79,-103.95 193.22,-101.11 185.64,-98.71 185.79,-103.95"/>
<text xml:space="preserve" text-anchor="middle" x="142.1" y="-104.44" font-family="Helvetica,sans-Serif" font-size="9.00">verify</text>
</g>
<!-- Authz -->
<g id="node10" class="node">
<title>Authz</title>
<path fill="#dbeafe" stroke="#1e3a8a" stroke-width="1.1" d="M497.3,-52C497.3,-52 436.7,-52 436.7,-52 430.7,-52 424.7,-46 424.7,-40 424.7,-40 424.7,-28 424.7,-28 424.7,-22 430.7,-16 436.7,-16 436.7,-16 497.3,-16 497.3,-16 503.3,-16 509.3,-22 509.3,-28 509.3,-28 509.3,-40 509.3,-40 509.3,-46 503.3,-52 497.3,-52"/>
<text xml:space="preserve" text-anchor="middle" x="467" y="-35.75" font-family="Helvetica,sans-Serif" font-size="10.00">Authorization /</text>
<text xml:space="preserve" text-anchor="middle" x="467" y="-24.5" font-family="Helvetica,sans-Serif" font-size="10.00">Policy Engine</text>
</g>
<!-- Val&#45;&gt;Authz -->
<g id="edge8" class="edge">
<title>Val&#45;&gt;Authz</title>
<path fill="none" stroke="#334155" d="M276.54,-34C315.87,-34 374.16,-34 415.68,-34"/>
<polygon fill="#334155" stroke="#334155" points="415.52,-36.63 423.02,-34 415.52,-31.38 415.52,-36.63"/>
</g>
<!-- Val&#45;&gt;Store -->
<g id="edge7" class="edge">
<title>Val&#45;&gt;Store</title>
<path fill="none" stroke="#334155" d="M284.78,-48.52C319.53,-58.4 365.75,-71.52 402.81,-82.05"/>
<polygon fill="#334155" stroke="#334155" points="285.93,-46.12 277.99,-46.6 284.49,-51.17 285.93,-46.12"/>
<polygon fill="#334155" stroke="#334155" points="401.66,-84.45 409.59,-83.98 403.1,-79.4 401.66,-84.45"/>
</g>
<!-- Dec -->
<g id="node11" class="node">
<title>Dec</title>
<path fill="#dcfce7" stroke="#166534" stroke-width="1.1" d="M741.4,-118C741.4,-118 679.3,-118 679.3,-118 673.3,-118 667.3,-112 667.3,-106 667.3,-106 667.3,-94 667.3,-94 667.3,-88 673.3,-82 679.3,-82 679.3,-82 741.4,-82 741.4,-82 747.4,-82 753.4,-88 753.4,-94 753.4,-94 753.4,-106 753.4,-106 753.4,-112 747.4,-118 741.4,-118"/>
<text xml:space="preserve" text-anchor="middle" x="710.35" y="-101.75" font-family="Helvetica,sans-Serif" font-size="10.00">Signed access</text>
<text xml:space="preserve" text-anchor="middle" x="710.35" y="-90.5" font-family="Helvetica,sans-Serif" font-size="10.00">decision</text>
</g>
<!-- Authz&#45;&gt;Dec -->
<g id="edge10" class="edge">
<title>Authz&#45;&gt;Dec</title>
<path fill="none" stroke="#334155" d="M509.76,-45.42C551,-56.7 614.12,-73.96 658.31,-86.04"/>
<polygon fill="#334155" stroke="#334155" points="657.49,-88.54 665.42,-87.99 658.88,-83.48 657.49,-88.54"/>
</g>
<!-- Authz&#45;&gt;Pol -->
<g id="edge9" class="edge">
<title>Authz&#45;&gt;Pol</title>
<path fill="none" stroke="#334155" d="M518.67,-34.63C561.5,-35.16 622.32,-35.92 663.67,-36.43"/>
<polygon fill="#334155" stroke="#334155" points="518.81,-32.01 511.28,-34.54 518.74,-37.26 518.81,-32.01"/>
<polygon fill="#334155" stroke="#334155" points="663.4,-39.05 670.93,-36.52 663.46,-33.8 663.4,-39.05"/>
</g>
<!-- Dec&#45;&gt;Reader -->
<g id="edge11" class="edge">
<title>Dec&#45;&gt;Reader</title>
<path fill="none" stroke="#334155" d="M710.35,-118.37C710.35,-166.43 710.35,-296.06 710.35,-352.79"/>
<polygon fill="#334155" stroke="#334155" points="707.73,-352.55 710.35,-360.05 712.98,-352.55 707.73,-352.55"/>
<text xml:space="preserve" text-anchor="middle" x="702.47" y="-236.32" font-family="Helvetica,sans-Serif" font-size="9.00">ALLOW / DENY&#45;class</text>
</g>
<!-- Dec&#45;&gt;Guard -->
<g id="edge12" class="edge">
<title>Dec&#45;&gt;Guard</title>
<path fill="none" stroke="#334155" d="M704.36,-118.45C695.16,-149.2 672.67,-211.09 632.55,-247 606.76,-270.08 571.71,-285.26 540.59,-295"/>
<polygon fill="#334155" stroke="#334155" points="540.22,-292.37 533.8,-297.05 541.73,-297.4 540.22,-292.37"/>
</g>
<!-- Dec&#45;&gt;Log -->
<g id="edge13" class="edge">
<title>Dec&#45;&gt;Log</title>
<path fill="none" stroke="#334155" d="M753.85,-100C783.2,-100 823.11,-100 858.22,-100"/>
<polygon fill="#334155" stroke="#334155" points="858.01,-102.63 865.51,-100 858.01,-97.38 858.01,-102.63"/>
</g>
<!-- VStore&#45;&gt;Visitor -->
<g id="edge19" class="edge">
<title>VStore&#45;&gt;Visitor</title>
<path fill="none" stroke="#334155" d="M88.74,-61.76C93.1,-65.6 97.06,-70.03 99.85,-75 134.61,-136.94 95.51,-165.95 115.85,-234 132.51,-289.71 135.57,-308.55 176.35,-350 182.38,-356.13 189.94,-361.33 197.5,-365.59"/>
<polygon fill="#334155" stroke="#334155" points="195.82,-367.67 203.68,-368.83 198.26,-363.02 195.82,-367.67"/>
<text xml:space="preserve" text-anchor="middle" x="142.1" y="-341.66" font-family="Helvetica,sans-Serif" font-size="9.00">signed QR</text>
</g>
</g>
</svg>
