<?xml version="1.0" encoding="UTF-8" standalone="no"?>
<!DOCTYPE svg PUBLIC "-//W3C//DTD SVG 1.1//EN"
 "http://www.w3.org/Graphics/SVG/1.1/DTD/svg11.dtd">
<!-- Generated by graphviz version 14.1.4 (20260321.0153)
 -->
<!-- Title: G Pages: 1 -->
<svg width="795pt" height="1129pt"
 viewBox="0.00 0.00 795.00 1129.00" xmlns="http://www.w3.org/2000/svg" xmlns:xlink="http://www.w3.org/1999/xlink">
<g id="graph0" class="graph" transform="scale(1 1) rotate(0) translate(21.6 1107.58)">
<title>G</title>
<polygon fill="white" stroke="none" points="-21.6,21.6 -21.6,-1107.58 773.35,-1107.58 773.35,21.6 -21.6,21.6"/>
<text xml:space="preserve" text-anchor="middle" x="375.88" y="-1069.63" font-family="Helvetica,sans-Serif" font-size="13.00">Figure J&#45;5. Visitor access: host pre&#45;approval or gate&#45;initiated approval; time&#45; and gate&#45;bound signed pass; no paper register</text>
<!-- H -->
<g id="node1" class="node">
<title>H</title>
<polygon fill="#ffffff" stroke="#111827" stroke-width="1.6" points="385.51,-1064.48 219.91,-1064.48 219.91,-1019.21 385.51,-1019.21 385.51,-1064.48"/>
<text xml:space="preserve" text-anchor="middle" x="302.71" y="-1049.22" font-family="Helvetica,sans-Serif" font-size="10.00">Host submits request (S13)</text>
<text xml:space="preserve" text-anchor="middle" x="302.71" y="-1037.97" font-family="Helvetica,sans-Serif" font-size="10.00">name, purpose category, window,</text>
<text xml:space="preserve" text-anchor="middle" x="302.71" y="-1026.72" font-family="Helvetica,sans-Serif" font-size="10.00">gate(s), delivery channel</text>
</g>
<!-- Ap -->
<g id="node2" class="node">
<title>Ap</title>
<polygon fill="#ffffff" stroke="#334155" stroke-width="1.1" points="302.71,-986.21 147.61,-952.19 302.71,-918.17 457.81,-952.19 302.71,-986.21"/>
<text xml:space="preserve" text-anchor="middle" x="302.71" y="-953.94" font-family="Helvetica,sans-Serif" font-size="10.00">Approver / policy (S14)</text>
<text xml:space="preserve" text-anchor="middle" x="302.71" y="-942.69" font-family="Helvetica,sans-Serif" font-size="10.00">approve | decline | edit window</text>
</g>
<!-- H&#45;&gt;Ap -->
<g id="edge1" class="edge">
<title>H&#45;&gt;Ap</title>
<path fill="none" stroke="#334155" d="M302.71,-1018.72C302.71,-1011.65 302.71,-1003.56 302.71,-995.54"/>
<polygon fill="#334155" stroke="#334155" points="305.34,-995.59 302.71,-988.09 300.09,-995.59 305.34,-995.59"/>
</g>
<!-- Iss -->
<g id="node3" class="node">
<title>Iss</title>
<path fill="#dbeafe" stroke="#1e3a8a" stroke-width="1.1" d="M381.39,-876.42C381.39,-876.42 224.04,-876.42 224.04,-876.42 218.04,-876.42 212.04,-870.42 212.04,-864.42 212.04,-864.42 212.04,-843.15 212.04,-843.15 212.04,-837.15 218.04,-831.15 224.04,-831.15 224.04,-831.15 381.39,-831.15 381.39,-831.15 387.39,-831.15 393.39,-837.15 393.39,-843.15 393.39,-843.15 393.39,-864.42 393.39,-864.42 393.39,-870.42 387.39,-876.42 381.39,-876.42"/>
<text xml:space="preserve" text-anchor="middle" x="302.71" y="-861.16" font-family="Helvetica,sans-Serif" font-size="10.00">Signed pass issued (S15)</text>
<text xml:space="preserve" text-anchor="middle" x="302.71" y="-849.91" font-family="Helvetica,sans-Serif" font-size="10.00">{pass ID, host, window, gates, uses}</text>
<text xml:space="preserve" text-anchor="middle" x="302.71" y="-838.66" font-family="Helvetica,sans-Serif" font-size="10.00">Ed25519</text>
</g>
<!-- Ap&#45;&gt;Iss -->
<g id="edge2" class="edge">
<title>Ap&#45;&gt;Iss</title>
<path fill="none" stroke="#334155" d="M302.71,-917.74C302.71,-907.33 302.71,-895.91 302.71,-885.68"/>
<polygon fill="#334155" stroke="#334155" points="305.34,-885.7 302.71,-878.2 300.09,-885.7 305.34,-885.7"/>
<text xml:space="preserve" text-anchor="middle" x="319.59" y="-893.62" font-family="Helvetica,sans-Serif" font-size="9.00">approve</text>
</g>
<!-- Del -->
<g id="node4" class="node">
<title>Del</title>
<path fill="#f4f6f8" stroke="#334155" stroke-width="1.1" d="M359.64,-798.15C359.64,-798.15 245.79,-798.15 245.79,-798.15 239.79,-798.15 233.79,-792.15 233.79,-786.15 233.79,-786.15 233.79,-764.88 233.79,-764.88 233.79,-758.88 239.79,-752.88 245.79,-752.88 245.79,-752.88 359.64,-752.88 359.64,-752.88 365.64,-752.88 371.64,-758.88 371.64,-764.88 371.64,-764.88 371.64,-786.15 371.64,-786.15 371.64,-792.15 365.64,-798.15 359.64,-798.15"/>
<text xml:space="preserve" text-anchor="middle" x="302.71" y="-782.89" font-family="Helvetica,sans-Serif" font-size="10.00">Delivered to visitor</text>
<text xml:space="preserve" text-anchor="middle" x="302.71" y="-771.64" font-family="Helvetica,sans-Serif" font-size="10.00">(e&#45;mail/SMS; contact used</text>
<text xml:space="preserve" text-anchor="middle" x="302.71" y="-760.39" font-family="Helvetica,sans-Serif" font-size="10.00">only for delivery)</text>
</g>
<!-- Iss&#45;&gt;Del -->
<g id="edge3" class="edge">
<title>Iss&#45;&gt;Del</title>
<path fill="none" stroke="#334155" d="M302.71,-830.72C302.71,-823.45 302.71,-815.22 302.71,-807.41"/>
<polygon fill="#334155" stroke="#334155" points="305.34,-807.54 302.71,-800.04 300.09,-807.54 305.34,-807.54"/>
</g>
<!-- Arr -->
<g id="node5" class="node">
<title>Arr</title>
<path fill="#f4f6f8" stroke="#334155" stroke-width="1.1" d="M348.01,-719.88C348.01,-719.88 257.41,-719.88 257.41,-719.88 251.41,-719.88 245.41,-713.88 245.41,-707.88 245.41,-707.88 245.41,-695.88 245.41,-695.88 245.41,-689.88 251.41,-683.88 257.41,-683.88 257.41,-683.88 348.01,-683.88 348.01,-683.88 354.01,-683.88 360.01,-689.88 360.01,-695.88 360.01,-695.88 360.01,-707.88 360.01,-707.88 360.01,-713.88 354.01,-719.88 348.01,-719.88"/>
<text xml:space="preserve" text-anchor="middle" x="302.71" y="-698" font-family="Helvetica,sans-Serif" font-size="10.00">Visitor arrives at gate</text>
</g>
<!-- Del&#45;&gt;Arr -->
<g id="edge4" class="edge">
<title>Del&#45;&gt;Arr</title>
<path fill="none" stroke="#334155" d="M302.71,-752.63C302.71,-745.26 302.71,-736.95 302.71,-729.27"/>
<polygon fill="#334155" stroke="#334155" points="305.34,-729.33 302.71,-721.83 300.09,-729.33 305.34,-729.33"/>
</g>
<!-- Has -->
<g id="node6" class="node">
<title>Has</title>
<polygon fill="#ffffff" stroke="#334155" stroke-width="1.1" points="302.71,-650.88 239.86,-632.88 302.71,-614.88 365.57,-632.88 302.71,-650.88"/>
<text xml:space="preserve" text-anchor="middle" x="302.71" y="-629" font-family="Helvetica,sans-Serif" font-size="10.00">Has pass?</text>
</g>
<!-- Arr&#45;&gt;Has -->
<g id="edge5" class="edge">
<title>Arr&#45;&gt;Has</title>
<path fill="none" stroke="#334155" d="M302.71,-683.62C302.71,-676.49 302.71,-668.06 302.71,-660.18"/>
<polygon fill="#334155" stroke="#334155" points="305.34,-660.32 302.71,-652.82 300.09,-660.32 305.34,-660.32"/>
</g>
<!-- Scan -->
<g id="node7" class="node">
<title>Scan</title>
<path fill="#f4f6f8" stroke="#334155" stroke-width="1.1" d="M386.14,-281.07C386.14,-281.07 281.29,-281.07 281.29,-281.07 275.29,-281.07 269.29,-275.07 269.29,-269.07 269.29,-269.07 269.29,-247.8 269.29,-247.8 269.29,-241.8 275.29,-235.8 281.29,-235.8 281.29,-235.8 386.14,-235.8 386.14,-235.8 392.14,-235.8 398.14,-241.8 398.14,-247.8 398.14,-247.8 398.14,-269.07 398.14,-269.07 398.14,-275.07 392.14,-281.07 386.14,-281.07"/>
<text xml:space="preserve" text-anchor="middle" x="333.71" y="-265.81" font-family="Helvetica,sans-Serif" font-size="10.00">Scan QR (S02/S03)</text>
<text xml:space="preserve" text-anchor="middle" x="333.71" y="-254.56" font-family="Helvetica,sans-Serif" font-size="10.00">verify signature, window,</text>
<text xml:space="preserve" text-anchor="middle" x="333.71" y="-243.31" font-family="Helvetica,sans-Serif" font-size="10.00">gate set, use count</text>
</g>
<!-- Has&#45;&gt;Scan -->
<g id="edge6" class="edge">
<title>Has&#45;&gt;Scan</title>
<path fill="none" stroke="#334155" d="M296.18,-616.48C290.02,-600.52 281.71,-574.72 281.71,-551.49 281.71,-551.49 281.71,-551.49 281.71,-366.07 281.71,-337.63 296.83,-308.86 310.77,-288.38"/>
<polygon fill="#334155" stroke="#334155" points="312.76,-290.1 314.94,-282.46 308.47,-287.07 312.76,-290.1"/>
<text xml:space="preserve" text-anchor="middle" x="288.84" y="-457.16" font-family="Helvetica,sans-Serif" font-size="9.00">yes</text>
</g>
<!-- Walk -->
<g id="node11" class="node">
<title>Walk</title>
<path fill="#fef3c7" stroke="#92400e" stroke-width="1.1" d="M555.39,-573.13C555.39,-573.13 332.04,-573.13 332.04,-573.13 326.04,-573.13 320.04,-567.13 320.04,-561.13 320.04,-561.13 320.04,-539.86 320.04,-539.86 320.04,-533.86 326.04,-527.86 332.04,-527.86 332.04,-527.86 555.39,-527.86 555.39,-527.86 561.39,-527.86 567.39,-533.86 567.39,-539.86 567.39,-539.86 567.39,-561.13 567.39,-561.13 567.39,-567.13 561.39,-573.13 555.39,-573.13"/>
<text xml:space="preserve" text-anchor="middle" x="443.71" y="-557.87" font-family="Helvetica,sans-Serif" font-size="10.00">Guard: [Visitor without approval] (S13 guard variant)</text>
<text xml:space="preserve" text-anchor="middle" x="443.71" y="-546.62" font-family="Helvetica,sans-Serif" font-size="10.00">host search &#45;&gt; approval request</text>
<text xml:space="preserve" text-anchor="middle" x="443.71" y="-535.37" font-family="Helvetica,sans-Serif" font-size="10.00">to host&#39;s phone</text>
</g>
<!-- Has&#45;&gt;Walk -->
<g id="edge10" class="edge">
<title>Has&#45;&gt;Walk</title>
<path fill="none" stroke="#334155" d="M323.22,-620.19C342.53,-609.18 372.15,-592.29 397.19,-578.01"/>
<polygon fill="#334155" stroke="#334155" points="398.27,-580.42 403.49,-574.43 395.67,-575.86 398.27,-580.42"/>
<text xml:space="preserve" text-anchor="middle" x="382.69" y="-590.33" font-family="Helvetica,sans-Serif" font-size="9.00">no</text>
</g>
<!-- Ok -->
<g id="node8" class="node">
<title>Ok</title>
<polygon fill="#ffffff" stroke="#334155" stroke-width="1.1" points="333.71,-202.8 290.03,-184.8 333.71,-166.8 377.4,-184.8 333.71,-202.8"/>
<text xml:space="preserve" text-anchor="middle" x="333.71" y="-180.92" font-family="Helvetica,sans-Serif" font-size="10.00">Valid?</text>
</g>
<!-- Scan&#45;&gt;Ok -->
<g id="edge7" class="edge">
<title>Scan&#45;&gt;Ok</title>
<path fill="none" stroke="#334155" d="M333.71,-235.55C333.71,-228.18 333.71,-219.87 333.71,-212.19"/>
<polygon fill="#334155" stroke="#334155" points="336.34,-212.25 333.71,-204.75 331.09,-212.25 336.34,-212.25"/>
</g>
<!-- G -->
<g id="node9" class="node">
<title>G</title>
<path fill="#dcfce7" stroke="#166534" stroke-width="1.1" d="M313.14,-125.05C313.14,-125.05 160.29,-125.05 160.29,-125.05 154.29,-125.05 148.29,-119.05 148.29,-113.05 148.29,-113.05 148.29,-91.78 148.29,-91.78 148.29,-85.78 154.29,-79.78 160.29,-79.78 160.29,-79.78 313.14,-79.78 313.14,-79.78 319.14,-79.78 325.14,-85.78 325.14,-91.78 325.14,-91.78 325.14,-113.05 325.14,-113.05 325.14,-119.05 319.14,-125.05 313.14,-125.05"/>
<text xml:space="preserve" text-anchor="middle" x="236.71" y="-109.79" font-family="Helvetica,sans-Serif" font-size="10.00">Guard sees: VISITOR &#45; first name &#45;</text>
<text xml:space="preserve" text-anchor="middle" x="236.71" y="-98.54" font-family="Helvetica,sans-Serif" font-size="10.00">Host &#45; valid until (S05 variant)</text>
<text xml:space="preserve" text-anchor="middle" x="236.71" y="-87.29" font-family="Helvetica,sans-Serif" font-size="10.00">Host notified of arrival</text>
</g>
<!-- Ok&#45;&gt;G -->
<g id="edge8" class="edge">
<title>Ok&#45;&gt;G</title>
<path fill="none" stroke="#334155" d="M319.81,-172.28C306.87,-161.55 287.05,-145.13 270.02,-131.01"/>
<polygon fill="#334155" stroke="#334155" points="272.02,-129.26 264.57,-126.5 268.67,-133.3 272.02,-129.26"/>
<text xml:space="preserve" text-anchor="middle" x="298.15" y="-142.25" font-family="Helvetica,sans-Serif" font-size="9.00">yes</text>
</g>
<!-- Deny -->
<g id="node10" class="node">
<title>Deny</title>
<path fill="#fee2e2" stroke="#991b1b" stroke-width="1.1" d="M453.76,-125.05C453.76,-125.05 361.66,-125.05 361.66,-125.05 355.66,-125.05 349.66,-119.05 349.66,-113.05 349.66,-113.05 349.66,-91.78 349.66,-91.78 349.66,-85.78 355.66,-79.78 361.66,-79.78 361.66,-79.78 453.76,-79.78 453.76,-79.78 459.76,-79.78 465.76,-85.78 465.76,-91.78 465.76,-91.78 465.76,-113.05 465.76,-113.05 465.76,-119.05 459.76,-125.05 453.76,-125.05"/>
<text xml:space="preserve" text-anchor="middle" x="407.71" y="-109.79" font-family="Helvetica,sans-Serif" font-size="10.00">DENY (S06/S07)</text>
<text xml:space="preserve" text-anchor="middle" x="407.71" y="-98.54" font-family="Helvetica,sans-Serif" font-size="10.00">expired / wrong gate /</text>
<text xml:space="preserve" text-anchor="middle" x="407.71" y="-87.29" font-family="Helvetica,sans-Serif" font-size="10.00">already used / forged</text>
</g>
<!-- Ok&#45;&gt;Deny -->
<g id="edge9" class="edge">
<title>Ok&#45;&gt;Deny</title>
<path fill="none" stroke="#334155" d="M345.27,-171.24C354.92,-160.76 369.02,-145.44 381.39,-132"/>
<polygon fill="#334155" stroke="#334155" points="383.12,-134 386.27,-126.7 379.26,-130.44 383.12,-134"/>
<text xml:space="preserve" text-anchor="middle" x="378.18" y="-142.25" font-family="Helvetica,sans-Serif" font-size="9.00">no</text>
</g>
<!-- Purge -->
<g id="node15" class="node">
<title>Purge</title>
<path fill="#ede9fe" stroke="#4c1d95" stroke-width="1.1" d="M314.64,-42.52C314.64,-44.87 279.71,-46.78 236.71,-46.78 193.71,-46.78 158.79,-44.87 158.79,-42.52 158.79,-42.52 158.79,-4.25 158.79,-4.25 158.79,-1.91 193.71,0 236.71,0 279.71,0 314.64,-1.91 314.64,-4.25 314.64,-4.25 314.64,-42.52 314.64,-42.52"/>
<path fill="none" stroke="#4c1d95" stroke-width="1.1" d="M314.64,-42.52C314.64,-40.18 279.71,-38.27 236.71,-38.27 193.71,-38.27 158.79,-40.18 158.79,-42.52"/>
<text xml:space="preserve" text-anchor="middle" x="236.71" y="-25.14" font-family="Helvetica,sans-Serif" font-size="10.00">Pass consumed / expires;</text>
<text xml:space="preserve" text-anchor="middle" x="236.71" y="-13.89" font-family="Helvetica,sans-Serif" font-size="10.00">visitor record deleted +30 days</text>
</g>
<!-- G&#45;&gt;Purge -->
<g id="edge15" class="edge">
<title>G&#45;&gt;Purge</title>
<path fill="none" stroke="#334155" d="M236.71,-79.55C236.71,-72.26 236.71,-63.98 236.71,-56.1"/>
<polygon fill="#334155" stroke="#334155" points="239.34,-56.13 236.71,-48.63 234.09,-56.13 239.34,-56.13"/>
</g>
<!-- Log -->
<g id="node16" class="node">
<title>Log</title>
<path fill="#ede9fe" stroke="#4c1d95" stroke-width="1.1" d="M437.64,-38.12C437.64,-39.92 424.22,-41.39 407.71,-41.39 391.2,-41.39 377.79,-39.92 377.79,-38.12 377.79,-38.12 377.79,-8.66 377.79,-8.66 377.79,-6.86 391.2,-5.39 407.71,-5.39 424.22,-5.39 437.64,-6.86 437.64,-8.66 437.64,-8.66 437.64,-38.12 437.64,-38.12"/>
<path fill="none" stroke="#4c1d95" stroke-width="1.1" d="M437.64,-38.12C437.64,-36.31 424.22,-34.84 407.71,-34.84 391.2,-34.84 377.79,-36.31 377.79,-38.12"/>
<text xml:space="preserve" text-anchor="middle" x="407.71" y="-19.51" font-family="Helvetica,sans-Serif" font-size="10.00">Audit log</text>
</g>
<!-- G&#45;&gt;Log -->
<g id="edge16" class="edge">
<title>G&#45;&gt;Log</title>
<path fill="none" stroke="#334155" d="M285.71,-79.34C312.23,-67.4 344.5,-52.86 369.19,-41.74"/>
<polygon fill="#334155" stroke="#334155" points="370.12,-44.2 375.88,-38.73 367.96,-39.41 370.12,-44.2"/>
</g>
<!-- Deny&#45;&gt;Log -->
<g id="edge17" class="edge">
<title>Deny&#45;&gt;Log</title>
<path fill="none" stroke="#334155" d="M407.71,-79.55C407.71,-70.61 407.71,-60.19 407.71,-50.82"/>
<polygon fill="#334155" stroke="#334155" points="410.34,-50.92 407.71,-43.42 405.09,-50.92 410.34,-50.92"/>
</g>
<!-- HostOK -->
<g id="node12" class="node">
<title>HostOK</title>
<polygon fill="#ffffff" stroke="#334155" stroke-width="1.1" points="443.71,-494.86 350.86,-460.84 443.71,-426.82 536.56,-460.84 443.71,-494.86"/>
<text xml:space="preserve" text-anchor="middle" x="443.71" y="-462.59" font-family="Helvetica,sans-Serif" font-size="10.00">Host approves</text>
<text xml:space="preserve" text-anchor="middle" x="443.71" y="-451.34" font-family="Helvetica,sans-Serif" font-size="10.00">on phone (S14)?</text>
</g>
<!-- Walk&#45;&gt;HostOK -->
<g id="edge11" class="edge">
<title>Walk&#45;&gt;HostOK</title>
<path fill="none" stroke="#334155" d="M443.71,-527.37C443.71,-520.3 443.71,-512.21 443.71,-504.19"/>
<polygon fill="#334155" stroke="#334155" points="446.34,-504.24 443.71,-496.74 441.09,-504.24 446.34,-504.24"/>
</g>
<!-- NoEntry -->
<g id="node13" class="node">
<title>NoEntry</title>
<path fill="#fee2e2" stroke="#991b1b" stroke-width="1.1" d="M592.14,-333.07C592.14,-333.07 415.29,-333.07 415.29,-333.07 409.29,-333.07 403.29,-327.07 403.29,-321.07 403.29,-321.07 403.29,-309.07 403.29,-309.07 403.29,-303.07 409.29,-297.07 415.29,-297.07 415.29,-297.07 592.14,-297.07 592.14,-297.07 598.14,-297.07 604.14,-303.07 604.14,-309.07 604.14,-309.07 604.14,-321.07 604.14,-321.07 604.14,-327.07 598.14,-333.07 592.14,-333.07"/>
<text xml:space="preserve" text-anchor="middle" x="503.71" y="-316.82" font-family="Helvetica,sans-Serif" font-size="10.00">No entry. Script: &quot;Host has not approved.</text>
<text xml:space="preserve" text-anchor="middle" x="503.71" y="-305.57" font-family="Helvetica,sans-Serif" font-size="10.00">Please contact your host.&quot;</text>
</g>
<!-- HostOK&#45;&gt;NoEntry -->
<g id="edge13" class="edge">
<title>HostOK&#45;&gt;NoEntry</title>
<path fill="none" stroke="#334155" d="M457.24,-431.27C463.66,-417.42 471.31,-400.48 477.71,-385.07 483.63,-370.81 489.74,-354.68 494.55,-341.59"/>
<polygon fill="#334155" stroke="#334155" points="496.89,-342.86 496.99,-334.91 491.95,-341.06 496.89,-342.86"/>
<text xml:space="preserve" text-anchor="middle" x="494.39" y="-402.27" font-family="Helvetica,sans-Serif" font-size="9.00">no / timeout</text>
</g>
<!-- Kiosk -->
<g id="node14" class="node">
<title>Kiosk</title>
<path fill="#f4f6f8" stroke="#334155" stroke-width="1.1" d="M453.39,-385.07C453.39,-385.07 332.04,-385.07 332.04,-385.07 326.04,-385.07 320.04,-379.07 320.04,-373.07 320.04,-373.07 320.04,-361.07 320.04,-361.07 320.04,-355.07 326.04,-349.07 332.04,-349.07 332.04,-349.07 453.39,-349.07 453.39,-349.07 459.39,-349.07 465.39,-355.07 465.39,-361.07 465.39,-361.07 465.39,-373.07 465.39,-373.07 465.39,-379.07 459.39,-385.07 453.39,-385.07"/>
<text xml:space="preserve" text-anchor="middle" x="392.71" y="-368.82" font-family="Helvetica,sans-Serif" font-size="10.00">Pass issued to visitor phone</text>
<text xml:space="preserve" text-anchor="middle" x="392.71" y="-357.57" font-family="Helvetica,sans-Serif" font-size="10.00">or printed at gate</text>
</g>
<!-- HostOK&#45;&gt;Kiosk -->
<g id="edge12" class="edge">
<title>HostOK&#45;&gt;Kiosk</title>
<path fill="none" stroke="#334155" d="M428.41,-432.3C421.48,-419.83 413.34,-405.19 406.59,-393.04"/>
<polygon fill="#334155" stroke="#334155" points="409.05,-392.07 403.12,-386.79 404.46,-394.62 409.05,-392.07"/>
<text xml:space="preserve" text-anchor="middle" x="422.28" y="-402.27" font-family="Helvetica,sans-Serif" font-size="9.00">yes</text>
</g>
<!-- NoEntry&#45;&gt;Log -->
<g id="edge18" class="edge">
<title>NoEntry&#45;&gt;Log</title>
<path fill="none" stroke="#334155" d="M503.71,-296.69C503.71,-277.78 503.71,-246.64 503.71,-219.8 503.71,-219.8 503.71,-219.8 503.71,-101.41 503.71,-70.43 472.91,-49.83 446.21,-37.8"/>
<polygon fill="#334155" stroke="#334155" points="447.41,-35.46 439.48,-34.93 445.35,-40.29 447.41,-35.46"/>
</g>
<!-- Kiosk&#45;&gt;Scan -->
<g id="edge14" class="edge">
<title>Kiosk&#45;&gt;Scan</title>
<path fill="none" stroke="#334155" d="M383.23,-348.93C374.3,-332.79 360.73,-308.27 350.05,-288.97"/>
<polygon fill="#334155" stroke="#334155" points="352.49,-287.94 346.56,-282.65 347.89,-290.48 352.49,-287.94"/>
</g>
</g>
</svg>
